<svg xmlns="http://www.w3.org/2000/svg" viewBox="0 0 512 512" width="512" height="512">
  <rect width="512" height="512" rx="100" fill="#8D6E00"/>
  <text x="256" y="192" font-family="Arial,sans-serif" font-size="40" font-weight="900" fill="white" text-anchor="middle" letter-spacing="2">EXCELÊNCIA</text>
  <text x="256" y="238" font-family="Arial,sans-serif" font-size="26" fill="rgba(255,255,255,0.75)" text-anchor="middle">HIGGIKA</text>
  <!-- Trophy -->
  <path d="M203 280 h106 v26 c0 37 -24 58 -53 58 s-53 -21 -53 -58 z" fill="#FDD835"/>
  <path d="M203 290 c-37 0 -48 42 -16 64 c8 5 16 8 24 8" fill="none" stroke="#FDD835" stroke-width="13" stroke-linecap="round"/>
  <path d="M309 290 c37 0 48 42 16 64 c-8 5 -16 8 -24 8" fill="none" stroke="#FDD835" stroke-width="13" stroke-linecap="round"/>
  <rect x="238" y="364" width="32" height="32" fill="#FDD835"/>
  <rect x="208" y="396" width="96" height="22" rx="8" fill="#FDD835"/>
</svg>
