<svg xmlns="http://www.w3.org/2000/svg" viewBox="0 0 192 192" width="192" height="192">
  <rect width="192" height="192" rx="40" fill="#8D6E00"/>
  <text x="96" y="72" font-family="Arial,sans-serif" font-size="15" font-weight="900" fill="white" text-anchor="middle" letter-spacing="1">EXCELÊNCIA</text>
  <text x="96" y="90" font-family="Arial,sans-serif" font-size="10" fill="rgba(255,255,255,0.75)" text-anchor="middle">HIGGIKA</text>
  <!-- Trophy -->
  <path d="M76 104 h40 v10 c0 14 -9 22 -20 22 s-20 -8 -20 -22 z" fill="#FDD835"/>
  <path d="M76 108 c-14 0 -18 16 -6 24 c3 2 6 3 9 3" fill="none" stroke="#FDD835" stroke-width="5" stroke-linecap="round"/>
  <path d="M116 108 c14 0 18 16 6 24 c-3 2 -6 3 -9 3" fill="none" stroke="#FDD835" stroke-width="5" stroke-linecap="round"/>
  <rect x="90" y="136" width="12" height="12" fill="#FDD835"/>
  <rect x="78" y="148" width="36" height="8" rx="3" fill="#FDD835"/>
</svg>
